HIERARCHY
ROOT Pelvis
{
	OFFSET 0.000000 0.000000 0.000000
	CHANNELS 6 Xposition Yposition Zposition Zrotation Yrotation Xrotation 
	JOINT Left_hip
	{
		OFFSET 0.067986 -0.089946 -0.007639
		CHANNELS 3 Zrotation Yrotation Xrotation
		JOINT Left_knee
		{
			OFFSET 0.036308 -0.388288 -0.004016
			CHANNELS 3 Zrotation Yrotation Xrotation
			JOINT Left_ankle
			{
				OFFSET -0.012264 -0.413250 -0.042878
				CHANNELS 3 Zrotation Yrotation Xrotation
				JOINT Left_foot
				{
					OFFSET 0.024043 -0.058563 0.118570
					CHANNELS 3 Zrotation Yrotation Xrotation
					End Site
					{
						OFFSET 0.000000 0.000000 0.000000
					}
				}
			}
		}
	}
	JOINT Right_hip
	{
		OFFSET -0.065648 -0.089374 -0.003858
		CHANNELS 3 Zrotation Yrotation Xrotation
		JOINT Right_knee
		{
			OFFSET -0.042132 -0.395021 -0.006361
			CHANNELS 3 Zrotation Yrotation Xrotation
			JOINT Right_ankle
			{
				OFFSET 0.014805 -0.413264 -0.041054
				CHANNELS 3 Zrotation Yrotation Xrotation
				JOINT Right_foot
				{
					OFFSET -0.021758 -0.049013 0.121832
					CHANNELS 3 Zrotation Yrotation Xrotation
					End Site
					{
						OFFSET 0.000000 0.000000 0.000000
					}
				}
			}
		}
	}
	JOINT Spine1
	{
		OFFSET -0.002755 0.104406 -0.022277
		CHANNELS 3 Zrotation Yrotation Xrotation
		JOINT Spine2
		{
			OFFSET 0.004136 0.129393 -0.002186
			CHANNELS 3 Zrotation Yrotation Xrotation
			JOINT Spine3
			{
				OFFSET 0.001906 0.049304 0.025578
				CHANNELS 3 Zrotation Yrotation Xrotation
				JOINT Neck
				{
					OFFSET -0.004620 0.210958 -0.044063
					CHANNELS 3 Zrotation Yrotation Xrotation
					JOINT Head
					{
						OFFSET 0.003833 0.067393 0.052435
						CHANNELS 3 Zrotation Yrotation Xrotation
						End Site
						{
							OFFSET 0.000000 0.000000 0.000000
						}
					}
				}
				JOINT Left_collar
				{
					OFFSET 0.070771 0.116689 -0.037192
					CHANNELS 3 Zrotation Yrotation Xrotation
					JOINT Left_shoulder
					{
						OFFSET 0.080652 0.031596 -0.005617
						CHANNELS 3 Zrotation Yrotation Xrotation
						JOINT Left_elbow
						{
							OFFSET 0.262654 -0.015020 -0.027939
							CHANNELS 3 Zrotation Yrotation Xrotation
							JOINT Left_wrist
							{
								OFFSET 0.250438 0.010062 -0.000990
								CHANNELS 3 Zrotation Yrotation Xrotation
								JOINT Left_palm
								{
									OFFSET 0.081198 -0.010037 -0.013706
									CHANNELS 3 Zrotation Yrotation Xrotation
									End Site
									{
										OFFSET 0.000000 0.000000 0.000000
									}
								}
							}
						}
					}
				}
				JOINT Right_collar
				{
					OFFSET -0.072972 0.115556 -0.040762
					CHANNELS 3 Zrotation Yrotation Xrotation
					JOINT Right_shoulder
					{
						OFFSET -0.082917 0.031841 -0.006673
						CHANNELS 3 Zrotation Yrotation Xrotation
						JOINT Right_elbow
						{
							OFFSET -0.252882 -0.013790 -0.020410
							CHANNELS 3 Zrotation Yrotation Xrotation
							JOINT Right_wrist
							{
								OFFSET -0.255570 0.009163 -0.005138
								CHANNELS 3 Zrotation Yrotation Xrotation
								JOINT Right_palm
								{
									OFFSET -0.080804 -0.007282 -0.010415
									CHANNELS 3 Zrotation Yrotation Xrotation
									End Site
									{
										OFFSET 0.000000 0.000000 0.000000
									}
								}
							}
						}
					}
				}
			}
		}
	}
}
MOTION
Frames: 13
Frame Time: 0.100000
0.000000 0.000000 0.000000 174.552187 24.907542 -12.865625 6.661977 5.450404 2.465399 -2.779522 -17.932368 -2.364721 -4.672466 14.888541 -4.471179 3.630390 -0.954187 -4.600257 -4.325316 -5.056996 2.383013 4.243496 12.007855 1.184866 4.408132 -14.394892 -7.485711 1.353659 4.857848 5.224916 0.910228 1.703570 2.049387 1.383705 -3.279085 1.561111 1.123019 1.193258 -0.084586 -5.199205 0.064141 6.669676 4.713039 0.556676 -10.048694 -5.493318 3.381911 -8.863385 0.452404 -2.556896 -13.110240 1.601777 -4.744558 -7.593675 2.156910 -6.465704 25.462602 -6.606839 -8.656773 -8.226273 6.114265 -0.905493 -3.689603 -0.552733 -5.328436 -18.454861 -3.261116 8.900810 -4.688214 -1.336140 6.308139 25.885694 11.687230 8.266952 -6.828732 
-0.000132 0.000009 -0.000115 174.557297 24.843487 -12.881805 6.668853 5.458042 2.500889 -2.794530 -17.898550 -2.369442 -4.625850 14.897219 -4.462298 3.602458 -0.942704 -4.620460 -4.335964 -5.048413 2.396483 4.251343 12.042245 1.170783 4.435796 -14.382760 -7.465242 1.305841 4.867502 5.190487 0.907155 1.702583 2.100201 1.390131 -3.273945 1.533743 1.124200 1.184184 -0.068126 -5.163561 0.070703 6.603487 4.716744 0.489955 -10.046113 -5.461695 3.425332 -8.881198 0.452688 -2.503867 -13.125188 1.628737 -4.740345 -7.598666 2.027990 -6.471518 25.508370 -6.579539 -8.635061 -8.209635 6.144717 -0.916797 -3.719753 -0.438738 -5.313176 -18.430158 -3.316030 8.901023 -4.716067 -1.236203 6.251218 25.907338 11.649228 8.242337 -6.820148 
-0.000314 -0.000006 -0.000037 174.565557 24.772360 -12.888302 6.667191 5.474738 2.557594 -2.784486 -17.859290 -2.405730 -4.598752 14.900664 -4.467663 3.580752 -0.923885 -4.605319 -4.343760 -5.038369 2.404712 4.255661 12.052435 1.176741 4.419894 -14.337326 -7.454812 1.366844 4.844624 5.205668 0.900704 1.711290 2.048415 1.415269 -3.257028 1.593358 1.122107 1.188805 -0.096907 -5.129714 0.111305 6.652265 4.682303 0.467645 -10.016135 -5.467840 3.462222 -8.881616 0.462868 -2.523354 -13.103346 1.623558 -4.738597 -7.547391 2.040739 -6.477430 25.566463 -6.575510 -8.636723 -8.254178 6.204387 -0.936815 -3.711739 -0.402369 -5.269451 -18.400824 -3.344607 8.898439 -4.752390 -1.282052 6.252117 25.869398 11.656247 8.236346 -6.830422 
-0.000477 -0.000004 -0.000140 174.565863 24.808479 -12.894174 6.649429 5.479222 2.558596 -2.793902 -17.882945 -2.410230 -4.619821 14.902214 -4.463773 3.615113 -0.935909 -4.603972 -4.364097 -5.042295 2.397288 4.261194 12.032930 1.214649 4.388766 -14.343503 -7.460542 1.408104 4.831602 5.218676 0.953359 1.696146 2.064165 1.424401 -3.259873 1.606947 1.123558 1.186220 -0.112658 -5.149894 0.130510 6.622386 4.622607 0.526580 -10.067651 -5.520238 3.458612 -8.867870 0.444581 -2.500217 -13.072842 1.632907 -4.795696 -7.507893 2.133627 -6.488175 25.593551 -6.601456 -8.663069 -8.260133 6.220366 -0.955072 -3.705003 -0.467709 -5.337106 -18.394193 -3.304821 8.902308 -4.719261 -1.320358 6.272441 25.941056 11.684388 8.266881 -6.858322 
0.000486 -0.000046 -0.000277 174.523509 24.803991 -12.915028 6.787401 5.520859 2.546765 -2.828624 -17.887211 -2.463213 -4.667619 14.852833 -4.394142 3.660280 -0.902482 -4.593000 -4.273314 -5.038710 2.319758 4.307050 11.986051 1.289317 4.285402 -14.315129 -7.460160 1.519676 4.752220 5.274246 0.954359 1.675292 2.119723 1.481190 -3.255318 1.704129 1.160039 1.166626 -0.157381 -5.020681 0.153500 6.608251 4.609268 0.493977 -10.085704 -5.621371 3.501657 -8.834836 0.450366 -2.395909 -12.992566 1.684381 -4.927244 -7.420156 2.252507 -6.489999 25.667316 -6.633966 -8.680448 -8.296316 6.326688 -0.944948 -3.698261 -0.524453 -5.304895 -18.358281 -3.337535 9.004735 -4.735265 -1.411038 6.288430 25.846630 11.695211 8.245377 -6.832387 
0.004815 -0.000242 -0.000497 174.379367 24.961093 -12.909503 7.168293 5.555174 2.290298 -2.815457 -17.888530 -2.501126 -4.810358 14.653992 -4.121399 3.748904 -0.787563 -4.737650 -3.879986 -5.056554 1.903439 4.420169 11.752474 1.699311 4.221229 -14.369292 -7.582382 1.337049 4.729249 5.369338 0.787202 1.652240 2.394900 1.499698 -3.242683 1.639851 1.220307 1.114241 -0.179712 -4.870354 0.273709 6.527776 4.751272 0.287925 -9.949270 -5.718813 3.608243 -8.867053 0.389758 -2.467364 -12.903297 1.944596 -5.404830 -7.352820 2.235645 -6.568073 25.892947 -6.732975 -8.695963 -8.338670 6.599185 -1.005065 -3.762872 0.008451 -5.295366 -18.081286 -3.687287 9.491250 -4.843112 -1.362951 6.358778 25.442639 11.724233 8.211772 -6.653775 
0.012432 -0.000047 -0.000453 174.275623 25.402551 -12.933919 7.576032 5.518895 1.695089 -2.822602 -17.961814 -2.111490 -5.113143 14.467647 -3.911976 4.050229 -0.799241 -4.908405 -3.473941 -5.061842 1.755570 4.589102 11.529842 1.623135 4.111113 -14.482313 -7.681671 1.102709 4.776444 5.402570 0.596902 1.700216 2.779639 1.385072 -3.286445 1.830561 1.220847 1.033880 -0.271627 -4.984055 0.579831 6.197750 4.809005 0.266586 -9.929064 -6.043670 3.516042 -8.758209 0.608622 -2.506216 -13.000340 2.496398 -6.411193 -7.402458 2.395719 -6.866121 26.147407 -6.843786 -8.715485 -8.294886 7.019493 -0.959257 -3.686708 0.436452 -5.466478 -17.965163 -4.099772 10.293548 -4.972054 -1.269910 6.619804 25.156175 11.762767 8.238626 -6.342178 
0.020100 0.000241 -0.000142 174.386679 25.593445 -13.013612 7.840656 5.505265 1.446326 -2.714906 -17.783150 -1.959745 -5.311668 14.193719 -3.628368 4.352204 -0.577831 -4.991628 -3.204762 -4.992241 1.752224 4.724128 11.242114 1.529348 3.884895 -14.297710 -7.828984 1.162742 4.563295 5.651491 0.721081 1.787824 3.028709 1.260252 -3.165082 2.235168 1.124399 1.087252 -0.363064 -5.113901 0.924394 6.210751 4.338477 0.187193 -9.903974 -6.545455 3.654661 -8.700823 0.259392 -2.492043 -12.639664 3.703889 -8.666025 -7.264458 2.362852 -6.998185 26.096384 -7.213382 -8.903090 -8.492154 7.503530 -0.939152 -3.619723 0.636847 -5.419994 -17.754365 -5.177470 13.024218 -5.383527 -1.270017 6.627907 24.537467 12.067597 8.326277 -6.379669 
0.027083 0.000490 0.000749 174.514389 26.065451 -13.159205 8.017783 5.257522 1.140262 -2.669463 -17.531262 -1.588830 -5.424291 13.595071 -3.390403 4.753653 0.063647 -4.968012 -3.043298 -4.941303 1.876375 4.867849 10.555197 1.522827 3.710063 -13.871311 -8.121166 1.122365 3.922794 5.943098 0.798951 1.842813 3.141867 1.422065 -3.238642 2.585362 1.153814 0.996489 -0.453795 -4.943385 1.298560 6.222606 3.931947 0.323390 -9.741370 -7.355902 3.910748 -8.602310 -0.338642 -2.403651 -12.020171 5.892081 -12.666128 -7.337016 2.137460 -7.198942 25.330230 -7.760857 -9.077092 -8.571444 8.367870 -1.172630 -3.900816 0.799952 -5.331194 -17.366002 -7.888726 20.070944 -6.786481 -1.855132 7.213650 23.343532 12.753978 8.224342 -6.345864 
0.033180 0.000801 0.001404 174.676595 26.775116 -13.331189 8.115271 4.842192 0.777540 -2.732226 -16.914216 -1.133358 -5.298993 12.375930 -3.041481 4.897139 1.385624 -4.957792 -3.011266 -4.814685 2.088425 4.949523 9.337404 1.494721 3.631249 -13.092958 -8.512162 0.925958 2.876734 6.367013 0.812273 1.906602 3.088873 1.733900 -3.465952 2.995169 1.238194 0.839327 -0.679358 -4.469575 1.769206 6.274945 3.645211 0.097828 -9.646797 -8.144177 3.752938 -8.405000 -1.534675 -2.473562 -11.099433 9.620792 -19.175149 -8.394106 0.486721 -7.523655 23.111379 -8.546988 -9.156563 -8.518098 9.412503 -1.038029 -4.265513 1.826426 -5.226924 -16.307246 -13.501845 31.702814 -9.414764 -1.991359 7.901870 21.539495 13.729759 7.955504 -6.358184 
0.038047 0.001230 0.001493 174.928659 27.316574 -13.594346 8.084782 4.382566 0.680780 -2.713050 -16.056404 -0.859030 -4.999892 10.937149 -2.704762 5.060761 3.042398 -4.842228 -3.105176 -4.628896 2.321851 5.023951 7.898141 1.652939 3.312346 -11.993671 -8.898612 1.114506 1.510362 6.801132 0.888730 2.023263 2.838902 2.126743 -3.640283 3.514070 1.268490 0.753310 -1.092009 -3.944113 2.108257 6.476681 3.161454 -0.047155 -9.290046 -8.960812 3.109733 -8.235363 -3.349596 -3.744204 -9.291493 14.211500 -27.480722 -10.723243 1.175805 -7.795770 18.823524 -10.037134 -9.423419 -8.778066 10.435036 -0.373898 -4.810489 3.313314 -3.714773 -14.594871 -21.881943 45.497196 -16.278893 -4.404506 8.748523 16.470196 15.336476 7.728643 -6.391659 
0.042574 0.001626 0.000874 175.070608 27.856092 -14.061275 8.178531 4.043635 0.809053 -2.705180 -14.970129 -0.804744 -4.832067 9.164485 -2.138656 5.241948 4.767887 -5.421315 -3.150401 -4.468176 2.424474 5.089433 6.171570 2.289521 3.118484 -10.683409 -9.327927 0.644071 0.272128 7.039517 1.272480 1.979069 2.647391 2.521570 -3.767334 4.006925 1.319808 0.733154 -1.497862 -3.413519 2.273734 6.642624 2.318012 -0.199519 -8.991530 -9.387126 2.024808 -7.689729 -8.060770 -5.447969 -6.293011 20.546109 -38.231345 -12.948758 1.970897 -8.376079 13.913917 -11.739492 -9.526547 -8.727715 10.843119 1.376259 -5.097785 6.596057 -0.165508 -12.191194 -33.092410 56.772767 -25.453812 -5.986322 9.638586 11.365125 16.561991 7.459221 -6.148341 
0.049871 0.002413 -0.000735 175.181244 28.338041 -14.473799 8.404848 3.785281 0.683608 -2.713579 -13.900774 -0.721159 -5.232983 7.567518 -1.478807 6.346811 6.119559 -6.374313 -3.071002 -4.343091 1.993149 5.181414 4.216191 3.511840 3.110325 -9.292618 -9.842323 -0.853991 -0.586981 6.776548 1.934250 1.818883 3.032255 2.568051 -3.824823 4.674741 1.338801 0.699963 -2.178500 -2.755200 2.209282 5.949006 1.546430 -0.213928 -8.926565 -11.249659 0.689928 -7.094994 -14.679745 -7.004515 -3.147254 28.971677 -48.235279 -16.764251 0.003059 -8.885778 12.576965 -13.348680 -9.882852 -8.554060 11.993452 3.796339 -4.798931 11.528795 2.972951 -8.276567 -42.098003 65.857633 -31.300821 -1.541152 10.597074 9.213904 16.690844 7.714931 -5.650801 
